# xmcd CD database file
#
# Track frame offsets:
#	150
#	22569
#	46413
#	93607
#	105132
#	137446
#	148706
#	166542
#	211067
#	259075
#
# Disc length: 4140 seconds
#
# Revision: 1
# Processed by: cddbd v1.4PL0 Copyright (c) Steve Scherf et al.
# Submitted via: CDex 1.40Release
#
DISCID=70102a0a
DTITLE=Santana - Forever Gold
DYEAR=1900
DGENRE=Blues
TTITLE0=Soul Sacrifice
TTITLE1=Persuasion
TTITLE2=La Puesta De Sol
TTITLE3=Acapulco Sunrise
TTITLE4=Everyday I Have the Blues
TTITLE5=Coconut Grove
TTITLE6=As the Years Go By
TTITLE7=Jin-Go-Lo-Ba
TTITLE8=Fried Neckbones and Home Fries
TTITLE9=Latin Tropical
EXTD=ID3G: 0
EXTT0=
EXTT1=
EXTT2=
EXTT3=
EXTT4=
EXTT5=
EXTT6=
EXTT7=
EXTT8=
EXTT9=
PLAYORDER=
